<?xml version="1.0" standalone="no"?><!DOCTYPE svg PUBLIC "-//W3C//DTD SVG 1.1//EN" "http://www.w3.org/Graphics/SVG/1.1/DTD/svg11.dtd"><svg t="1555582599788" class="icon" style="" viewBox="0 0 1024 1024" version="1.1" xmlns="http://www.w3.org/2000/svg" p-id="1986" xmlns:xlink="http://www.w3.org/1999/xlink" width="200" height="200"><defs><style type="text/css"></style></defs><path d="M803.36896 388.17792c65.16736 0 118.04672 53.6576 118.23104 120.0128v395.96032C921.6 970.3424 868.53632 1024 803.36896 1024H220.63104C155.46368 1024 102.4 970.1376 102.4 904.15104V508.0064c0-66.17088 53.06368-119.82848 118.23104-119.82848h43.70432v-130.3552C264.33536 110.96064 370.2784 0 510.73024 0c141.88544 0 248.9344 110.77632 248.9344 257.82272v130.3552h43.70432z m-485.7856-130.53952v125.99296h388.64896V257.6384c0-114.5856-79.0528-204.14464-195.50208-204.14464-117.88288 0-193.14688 91.5456-193.14688 204.14464zM868.1472 904.15104l-0.36864-395.96032c0-36.4544-29.06112-65.98656-64.79872-65.98656H220.28288c-35.57376 0-64.8192 29.55264-64.8192 65.98656v395.96032c0 36.4544 29.24544 66.00704 64.8192 66.00704h583.0656c35.75808 0 64.8192-29.55264 64.8192-66.00704z m-356.352-330.1376c35.92192 0 64.63488 29.55264 65.16736 65.98656 0 23.552-12.288 45.32224-32.48128 57.28256v107.88864c0 18.30912-14.45888 32.99328-32.50176 32.99328a32.62464 32.62464 0 0 1-32.50176-32.99328v-107.86816a66.62144 66.62144 0 0 1-32.48128-57.30304c0-36.4544 29.06112-65.98656 64.79872-65.98656z" p-id="1987"></path></svg>